<?xml version="1.0" encoding="UTF-8" standalone="no"?>
<svg
   xmlns:dc="http://purl.org/dc/elements/1.1/"
   xmlns:cc="http://creativecommons.org/ns#"
   xmlns:rdf="http://www.w3.org/1999/02/22-rdf-syntax-ns#"
   xmlns:svg="http://www.w3.org/2000/svg"
   xmlns="http://www.w3.org/2000/svg"
   id="svg46"
   xml:space="preserve"
   viewBox="0 0 200 200"
   y="0px"
   x="0px"
   version="1.1"><metadata
     id="metadata50"><rdf:RDF><cc:Work
         rdf:about=""><dc:format>image/svg+xml</dc:format><dc:type
           rdf:resource="http://purl.org/dc/dcmitype/StillImage" /></cc:Work></rdf:RDF></metadata><defs
     id="defs34"><filter
       height="200%"
       width="200%"
       y="-50%"
       x="-50%"
       id="filter"><feOffset
         id="feOffset2"
         dy="5"
         dx="0"
         in="SourceGraphic"
         result="inner-glow" /><feFlood
         id="feFlood4"
         result="flood-white"
         flood-color="#ffffff" /><feFlood
         id="feFlood6"
         result="flood-accent"
         flood-color="#3bf8fa"><animate
           values="#fcfcfc;                      #bbfafb;                      #7bf9fa;                      #3bf8fa; #fcfcfc"
           keyTimes="0;                        0.25;                        0.5;                        0.75;                        1"
           repeatCount="indefinite"
           dur="6s"
           attributeName="flood-color" /></feFlood><feComposite
         id="feComposite8"
         result="comp"
         in2="SourceAlpha"
         in="flood-accent"
         operator="out" /><feMorphology
         id="feMorphology10"
         radius="4"
         operator="dilate"
         result="comp"
         in="comp" /><feGaussianBlur
         id="feGaussianBlur12"
         stdDeviation="5"
         result="comp"
         in="comp" /><feComposite
         id="feComposite14"
         result="comp"
         in2="SourceAlpha"
         in="comp"
         operator="in" /><feComposite
         id="feComposite16"
         result="comp2"
         in2="SourceAlpha"
         in="flood-white"
         operator="in" /><feMorphology
         id="feMorphology18"
         radius="3"
         operator="erode"
         result="comp2"
         in="comp2" /><feGaussianBlur
         id="feGaussianBlur20"
         stdDeviation="4"
         result="comp2"
         in="comp2"><animate
           repeatCount="indefinite"
           keySplines=".73 .18 .24 .87; .73 .18 .24 .87;"
           calcMode="spline"
           dur="3s"
           values="4;6;4"
           attributeName="stdDeviation" /></feGaussianBlur><feBlend
         id="feBlend22"
         mode="screen"
         result="output"
         in2="comp2"
         in="comp" /></filter><filter
       height="200%"
       width="200%"
       y="-50%"
       x="-50%"
       id="glow"><feGaussianBlur
         id="feGaussianBlur25"
         stdDeviation="6"
         in="SourceGraphic" /></filter><filter
       height="300%"
       width="300%"
       y="-100%"
       x="-100%"
       id="glow2"><feGaussianBlur
         id="feGaussianBlur28"
         stdDeviation="20"
         in="SourceGraphic" /></filter><filter
       height="200%"
       width="200%"
       y="-50%"
       x="-50%"
       id="shadow"><feGaussianBlur
         id="feGaussianBlur31"
         stdDeviation="4"
         in="SourceGraphic" /></filter></defs><g
     id="g44"
     transform="matrix(0.8,0,0,0.8,20,20)"><path
       style="opacity:0.7;mix-blend-mode:screen;fill:#3bf8fa;stroke:#3bf8fa;stroke-width:5;filter:url(#glow2)"
       id="path36"
       mix-blend-mode="screen"
       d="M 100,48.035 C 99.98909,48.0362 86.485,71.416 69.99,99.994 L 40,151.953 l 30,0.01 c 16.5,0.006 43.5,0.006 60,0 l 30,-0.01 -29.99,-51.958 C 113.51,71.421 100.01,48.038 100,48.038 Z m 0,11.43 c 0.0109,0 11.285,19.512 25.053,43.361 13.768,23.85 25.038,43.379 25.045,43.398 0.007,0.0202 -20.311,0.0332 -50.098,0.0332 -29.895,0 -50.105,-0.0147 -50.098,-0.0351 0.0073,-0.0206 11.277,-19.55 25.045,-43.398 C 88.715,78.9781 99.989,59.4661 100,59.4651 Z"><animate
         values="#fcfcfc;                      #bbfafb;                      #7bf9fa;                      #3bf8fa; #fcfcfc"
         keyTimes="0;                        0.25;                        0.5;                        0.75;                        1"
         repeatCount="indefinite"
         dur="6s"
         attributeName="fill" /><animate
         values="#fcfcfc;                      #bbfafb;                      #7bf9fa;                      #3bf8fa; #fcfcfc"
         keyTimes="0;                        0.25;                        0.5;                        0.75;                        1"
         repeatCount="indefinite"
         dur="6s"
         attributeName="stroke" /></path><path
       style="opacity:1;mix-blend-mode:screen;fill:#3bf8fa;stroke:#3bf8fa;stroke-width:5;filter:url(#glow)"
       id="path38"
       mix-blend-mode="screen"
       d="M 100,48.035 C 99.98909,48.0362 86.485,71.416 69.99,99.994 L 40,151.953 l 30,0.01 c 16.5,0.006 43.5,0.006 60,0 l 30,-0.01 -29.99,-51.958 C 113.51,71.421 100.01,48.038 100,48.038 Z m 0,11.43 c 0.0109,0 11.285,19.512 25.053,43.361 13.768,23.85 25.038,43.379 25.045,43.398 0.007,0.0202 -20.311,0.0332 -50.098,0.0332 -29.895,0 -50.105,-0.0147 -50.098,-0.0351 0.0073,-0.0206 11.277,-19.55 25.045,-43.398 C 88.715,78.9781 99.989,59.4661 100,59.4651 Z"><animate
         values="#fcfcfc;                      #bbfafb;                      #7bf9fa;                      #3bf8fa; #fcfcfc"
         keyTimes="0;                        0.25;                        0.5;                        0.75;                        1"
         repeatCount="indefinite"
         dur="6s"
         attributeName="fill" /><animate
         values="#fcfcfc;                      #bbfafb;                      #7bf9fa;                      #3bf8fa; #fcfcfc"
         keyTimes="0;                        0.25;                        0.5;                        0.75;                        1"
         repeatCount="indefinite"
         dur="6s"
         attributeName="stroke" /></path><path
       style="opacity:0.3;mix-blend-mode:screen;fill:#000000;stroke:#000000;stroke-width:2;filter:url(#shadow)"
       id="path40"
       mix-blend-mode="screen"
       transform="translate(3,15)"
       d="M 100,48.035 C 99.98909,48.0362 86.485,71.416 69.99,99.994 L 40,151.953 l 30,0.01 c 16.5,0.006 43.5,0.006 60,0 l 30,-0.01 -29.99,-51.958 C 113.51,71.421 100.01,48.038 100,48.038 Z m 0,11.43 c 0.0109,0 11.285,19.512 25.053,43.361 13.768,23.85 25.038,43.379 25.045,43.398 0.007,0.0202 -20.311,0.0332 -50.098,0.0332 -29.895,0 -50.105,-0.0147 -50.098,-0.0351 0.0073,-0.0206 11.277,-19.55 25.045,-43.398 C 88.715,78.9781 99.989,59.4661 100,59.4651 Z" /><path
       style="fill:#ffffff;filter:url(#filter)"
       id="path42"
       d="M 100,48.035 C 99.98909,48.0362 86.485,71.416 69.99,99.994 L 40,151.953 l 30,0.01 c 16.5,0.006 43.5,0.006 60,0 l 30,-0.01 -29.99,-51.958 C 113.51,71.421 100.01,48.038 100,48.038 Z m 0,11.43 c 0.0109,0 11.285,19.512 25.053,43.361 13.768,23.85 25.038,43.379 25.045,43.398 0.007,0.0202 -20.311,0.0332 -50.098,0.0332 -29.895,0 -50.105,-0.0147 -50.098,-0.0351 0.0073,-0.0206 11.277,-19.55 25.045,-43.398 C 88.715,78.9781 99.989,59.4661 100,59.4651 Z" /></g></svg>