<?xml version="1.0" encoding="UTF-8" standalone="no"?>
<svg
   xmlns:dc="http://purl.org/dc/elements/1.1/"
   xmlns:cc="http://creativecommons.org/ns#"
   xmlns:rdf="http://www.w3.org/1999/02/22-rdf-syntax-ns#"
   xmlns:svg="http://www.w3.org/2000/svg"
   xmlns="http://www.w3.org/2000/svg"
   id="svg43"
   xml:space="preserve"
   viewBox="0 0 200 200"
   y="0px"
   x="0px"
   version="1.1"><metadata
     id="metadata47"><rdf:RDF><cc:Work
         rdf:about=""><dc:format>image/svg+xml</dc:format><dc:type
           rdf:resource="http://purl.org/dc/dcmitype/StillImage" /></cc:Work></rdf:RDF></metadata><defs
     id="defs10"><linearGradient
       y2="0"
       x2="0"
       gradientUnits="userSpaceOnUse"
       id="gradient"><stop
         id="stop2"
         stop-opacity="1"
         stop-color="#FFFFFF"
         offset="0" /><stop
         id="stop4"
         stop-opacity="0"
         stop-color="#FFFFFF"
         offset="1" /><animate
         repeatCount="1"
         values="0; 200; 200"
         to="200"
         from="0"
         dur="4s"
         attributeName="x2" /></linearGradient><mask
       maskUnits="userSpaceOnUse"
       id="mask"><rect
         id="rect7"
         fill="url(#gradient)"
         height="200"
         width="200" /></mask></defs><g
     id="g21"
     mask="url(#mask)"><defs
       id="defs146904" /><linearGradient
       spreadMethod="pad"
       y2="0.30000001"
       x2="-0.1"
       y1="1.2"
       x1="0.30000001"
       id="3d_gradient2-logo-96b13c91-8555-42ca-af07-412a5b42c81e"><stop
         id="stop146881"
         stop-opacity="1"
         stop-color="#ffffff"
         offset="0%" /><stop
         id="stop146883"
         stop-opacity="1"
         stop-color="#000000"
         offset="100%" /></linearGradient><linearGradient
       gradientTransform="rotate(-30)"
       spreadMethod="pad"
       y2="0.30000001"
       x2="-0.1"
       y1="1.2"
       x1="0.30000001"
       id="3d_gradient3-logo-96b13c91-8555-42ca-af07-412a5b42c81e"><stop
         id="stop146886"
         stop-opacity="1"
         stop-color="#ffffff"
         offset="0%" /><stop
         id="stop146888"
         stop-opacity="1"
         stop-color="#cccccc"
         offset="50%" /><stop
         id="stop146890"
         stop-opacity="1"
         stop-color="#000000"
         offset="100%" /></linearGradient><path
       style="fill:#3bf8fa;stroke-width:0.68529141"
       d="m 100.00002,48.033378 c -0.01028,0 -13.514627,23.382143 -30.009591,51.960849 l -29.990407,51.958793 30.000001,0.01 c 16.500446,0.005 43.500237,0.005 60.000007,0 l 30,-0.01 -29.99041,-51.960163 C 113.51466,71.418262 100.01167,48.03612 100.00071,48.03612 Z m 0,11.430661 c 0.0107,0 11.28401,19.512987 25.0522,43.362501 13.76819,23.84951 25.03918,43.37826 25.04603,43.39744 0.008,0.0202 -20.31204,0.0343 -50.09823,0.0343 -29.895147,0 -50.105761,-0.0141 -50.098223,-0.0347 0.0069,-0.0206 11.277841,-19.55136 25.04603,-43.3995 C 88.716016,78.9773 99.989745,59.463628 100.00002,59.463628 Z"
       id="icon" /></g><g
     style="opacity:0"
     id="g41"><defs
       id="defs23" /><linearGradient
       spreadMethod="pad"
       y2="0.30000001"
       x2="-0.1"
       y1="1.2"
       x1="0.30000001"
       id="linearGradient29"><stop
         id="stop25"
         stop-opacity="1"
         stop-color="#ffffff"
         offset="0%" /><stop
         id="stop27"
         stop-opacity="1"
         stop-color="#000000"
         offset="100%" /></linearGradient><linearGradient
       gradientTransform="rotate(-30)"
       spreadMethod="pad"
       y2="0.30000001"
       x2="-0.1"
       y1="1.2"
       x1="0.30000001"
       id="linearGradient37"><stop
         id="stop31"
         stop-opacity="1"
         stop-color="#ffffff"
         offset="0%" /><stop
         id="stop33"
         stop-opacity="1"
         stop-color="#cccccc"
         offset="50%" /><stop
         id="stop35"
         stop-opacity="1"
         stop-color="#000000"
         offset="100%" /></linearGradient><path
       style="fill:#3bf8fa;stroke-width:0.68529141"
       d="m 100.00002,48.033378 c -0.01028,0 -13.514627,23.382143 -30.009591,51.960849 l -29.990407,51.958793 30.000001,0.01 c 16.500446,0.005 43.500237,0.005 60.000007,0 l 30,-0.01 -29.99041,-51.960163 C 113.51466,71.418262 100.01167,48.03612 100.00071,48.03612 Z m 0,11.430661 c 0.0107,0 11.28401,19.512987 25.0522,43.362501 13.76819,23.84951 25.03918,43.37826 25.04603,43.39744 0.008,0.0202 -20.31204,0.0343 -50.09823,0.0343 -29.895147,0 -50.105761,-0.0141 -50.098223,-0.0347 0.0069,-0.0206 11.277841,-19.55136 25.04603,-43.3995 C 88.716016,78.9773 99.989745,59.463628 100.00002,59.463628 Z"
       id="path39" /><animate
       repeatCount="1"
       values="0; 0; 1"
       to="1"
       from="0"
       dur="4s"
       attributeName="opacity" /></g></svg>