<?xml version="1.0" encoding="UTF-8" standalone="no"?>
<svg
   xmlns:dc="http://purl.org/dc/elements/1.1/"
   xmlns:cc="http://creativecommons.org/ns#"
   xmlns:rdf="http://www.w3.org/1999/02/22-rdf-syntax-ns#"
   xmlns:svg="http://www.w3.org/2000/svg"
   xmlns="http://www.w3.org/2000/svg"
   id="svg20"
   xml:space="preserve"
   viewBox="0 0 200 200"
   y="0px"
   x="0px"
   version="1.1"><metadata
     id="metadata24"><rdf:RDF><cc:Work
         rdf:about=""><dc:format>image/svg+xml</dc:format><dc:type
           rdf:resource="http://purl.org/dc/dcmitype/StillImage" /></cc:Work></rdf:RDF></metadata><style
     id="style2">
.clip{
  animation: slide 3s linear forwards;
}

@keyframes slide {
  from {
    transform: matrix(1.7, 0, 0, 1.7, 0, -200);
  }
  to {
    transform: matrix(1.7, 0, 0, 1.7, 0, 0);
  }
}
</style><defs
     id="defs7"><clipPath
       id="circle-clip"><path
         id="path4"
         transform="matrix(8.6, 0, 0, 6, 0, 0)"
         d="M101.807,123.37c10-0.352,18.193,5.401,18.193,5.401V0H0v128.771c0,0,9.701-5.227,17.069-5.227s10.464,6.314,20.877,6.314  c10.175,0,12.703-4.209,22.053-4.209s11.981,5.438,20.578,5.438S91.807,123.722,101.807,123.37z"
         class="clip"><animate
           values="M101.807,123.37c10-0.352,18.193,5.401,18.193,5.401V0H0v128.771c0,0,9.701-5.227,17.069-5.227s10.464,6.314,20.877,6.314  c10.175,0,12.703-4.209,22.053-4.209s11.981,5.438,20.578,5.438S91.807,123.722,101.807,123.37z;M101.807,135.303c10-0.352,18.193-6.531,18.193-6.531V0H0v128.771c0,0,9.701,4.952,17.069,4.952s10.464-9.299,20.877-9.299  c10.175,0,12.703,9.299,22.053,9.299s11.981-9.123,20.578-9.123S91.807,135.654,101.807,135.303z ;M101.807,123.37c10-0.352,18.193,5.401,18.193,5.401V0H0v128.771c0,0,9.701-5.227,17.069-5.227s10.464,6.314,20.877,6.314  c10.175,0,12.703-4.209,22.053-4.209s11.981,5.438,20.578,5.438S91.807,123.722,101.807,123.37z"
           to="M101.807,123.37c10-0.352,18.193,5.401,18.193,5.401V0H0v128.771c0,0,9.701-5.227,17.069-5.227s10.464,6.314,20.877,6.314  c10.175,0,12.703-4.209,22.053-4.209s11.981,5.438,20.578,5.438S91.807,123.722,101.807,123.37z"
           from="M101.807,123.37c10-0.352,18.193,5.401,18.193,5.401V0H0v128.771c0,0,9.701-5.227,17.069-5.227s10.464,6.314,20.877,6.314  c10.175,0,12.703-4.209,22.053-4.209s11.981,5.438,20.578,5.438S91.807,123.722,101.807,123.37z"
           attributeName="d"
           repeatCount="indefinite"
           begin="0"
           dur="1"
           id="morph-one" /></path></clipPath></defs><g
     id="g18"
     clip-path="url(#circle-clip)"><defs
       id="defs146904" /><linearGradient
       spreadMethod="pad"
       y2="0.30000001"
       x2="-0.1"
       y1="1.2"
       x1="0.30000001"
       id="3d_gradient2-logo-96b13c91-8555-42ca-af07-412a5b42c81e"><stop
         id="stop146881"
         stop-opacity="1"
         stop-color="#ffffff"
         offset="0%" /><stop
         id="stop146883"
         stop-opacity="1"
         stop-color="#000000"
         offset="100%" /></linearGradient><linearGradient
       gradientTransform="rotate(-30)"
       spreadMethod="pad"
       y2="0.30000001"
       x2="-0.1"
       y1="1.2"
       x1="0.30000001"
       id="3d_gradient3-logo-96b13c91-8555-42ca-af07-412a5b42c81e"><stop
         id="stop146886"
         stop-opacity="1"
         stop-color="#ffffff"
         offset="0%" /><stop
         id="stop146888"
         stop-opacity="1"
         stop-color="#cccccc"
         offset="50%" /><stop
         id="stop146890"
         stop-opacity="1"
         stop-color="#000000"
         offset="100%" /></linearGradient><path
       style="fill:#3bf8fa;stroke-width:0.68529141"
       d="m 100.00002,48.033378 c -0.01028,0 -13.514627,23.382143 -30.009591,51.960849 l -29.990407,51.958793 30.000001,0.01 c 16.500446,0.005 43.500237,0.005 60.000007,0 l 30,-0.01 -29.99041,-51.960163 C 113.51466,71.418262 100.01167,48.03612 100.00071,48.03612 Z m 0,11.430661 c 0.0107,0 11.28401,19.512987 25.0522,43.362501 13.76819,23.84951 25.03918,43.37826 25.04603,43.39744 0.008,0.0202 -20.31204,0.0343 -50.09823,0.0343 -29.895147,0 -50.105761,-0.0141 -50.098223,-0.0347 0.0069,-0.0206 11.277841,-19.55136 25.04603,-43.3995 C 88.716016,78.9773 99.989745,59.463628 100.00002,59.463628 Z"
       id="icon" /></g></svg>